<svg width="24" height="25" viewBox="0 0 24 25" fill="none" xmlns="http://www.w3.org/2000/svg">
<path d="M23.9936 10.1416C23.991 9.67016 23.7095 9.37474 23.2406 9.31548C22.6803 9.24402 22.12 9.12463 21.5587 9.11853C20.9051 9.11069 20.5252 8.8571 20.371 8.21658C20.3291 8.04229 20.3073 7.92987 20.4259 7.7826C20.8816 7.21528 21.3226 6.63751 21.7714 6.0641C22.1688 5.55691 22.1548 5.19613 21.7078 4.74647C20.879 3.9151 20.0485 3.08548 19.2163 2.2576C18.8337 1.87678 18.4555 1.84715 18.0267 2.17133C17.5936 2.499 17.1292 2.79703 16.7501 3.1796C16.2577 3.67633 15.7767 3.75127 15.191 3.38613C15.0664 3.30857 15.0019 3.24844 14.9845 3.10117C14.8904 2.31338 14.7876 1.52733 14.6821 0.74128C14.6229 0.300326 14.3414 0.0153619 13.903 0.0101332C12.6421 -0.00380996 11.3811 -0.00293851 10.1201 0.0101332C9.66605 0.0144905 9.37847 0.302069 9.31834 0.756095C9.24253 1.32689 9.12488 1.89769 9.11442 2.47024C9.10396 3.11075 8.85037 3.47676 8.22641 3.63188C8.03644 3.67894 7.91792 3.68504 7.7628 3.56129C7.18765 3.09855 6.59942 2.65063 6.01642 2.19747C5.84213 2.0624 5.66261 1.94388 5.42819 1.95608C5.18505 1.95173 4.99072 2.05107 4.82079 2.221C3.96938 3.0759 3.11361 3.92643 2.26395 4.7822C1.85873 5.19003 1.84391 5.56214 2.20033 6.02489C2.52538 6.44667 2.81558 6.90331 3.18856 7.27716C3.65914 7.74949 3.76284 8.20525 3.39684 8.7778C3.30708 8.9181 3.24694 9.00786 3.07353 9.0279C2.29619 9.11766 1.5206 9.21701 0.745882 9.32158C0.292728 9.38258 0.0129926 9.67539 0.00863533 10.1294C-0.00182207 11.3799 -0.00356583 12.6296 0.00776303 13.8801C0.0121203 14.3359 0.294471 14.6226 0.749368 14.6845C1.33063 14.7638 1.91188 14.8928 2.49488 14.8971C3.13453 14.9024 3.4744 15.1647 3.62603 15.7712C3.67221 15.9577 3.69313 16.0797 3.56851 16.2365C3.09444 16.8309 2.62821 17.4322 2.16722 18.0361C1.85175 18.4492 1.87615 18.8352 2.23955 19.2012C3.08137 20.05 3.92755 20.8953 4.77634 21.738C5.18418 22.1432 5.55803 22.1624 6.0199 21.8095C6.45999 21.4731 6.93144 21.1663 7.32185 20.7794C7.77326 20.3315 8.19504 20.2609 8.74057 20.5894C8.92096 20.6984 9.01333 20.7846 9.03599 20.9886C9.12139 21.7337 9.22074 22.477 9.31486 23.2203C9.3776 23.7171 9.66343 23.9942 10.1514 23.9968C11.3906 24.0038 12.6299 24.0047 13.8699 23.9977C14.3257 23.9951 14.6202 23.7223 14.683 23.2691C14.7632 22.6879 14.8991 22.1058 14.8974 21.5245C14.8956 20.8587 15.1989 20.5389 15.795 20.369C15.9754 20.3175 16.086 20.3219 16.2289 20.4352C16.8329 20.9145 17.442 21.3868 18.0555 21.8539C18.4511 22.1546 18.8407 22.1232 19.1936 21.7711C20.0485 20.9197 20.9034 20.0683 21.7531 19.2134C22.1313 18.8326 22.1557 18.4509 21.8306 18.0204C21.503 17.5873 21.2032 17.1237 20.8224 16.742C20.3422 16.2609 20.2385 15.793 20.6132 15.2135C20.696 15.0854 20.7518 15.0026 20.9165 14.9834C21.6938 14.8936 22.4694 14.7899 23.245 14.6862C23.7173 14.6235 23.9944 14.3272 23.9971 13.861C24.0005 12.6209 24.0005 11.3817 23.9936 10.1416ZM22.3892 12.9067C22.3962 13.1359 22.3108 13.2022 22.1043 13.2257C21.4028 13.3059 20.703 13.4008 20.0023 13.4871C19.6381 13.5324 19.408 13.7329 19.306 14.0806C19.1439 14.6357 18.9243 15.1664 18.6446 15.6718C18.4468 16.0283 18.4938 16.3559 18.7422 16.6697C19.1666 17.2065 19.5797 17.752 20.0102 18.2845C20.14 18.4448 20.1723 18.5441 19.9988 18.7071C19.5544 19.1228 19.1248 19.555 18.7073 19.9969C18.5487 20.1642 18.4485 20.1467 18.2838 20.0134C17.761 19.589 17.2207 19.1864 16.696 18.7646C16.3492 18.4858 16.0006 18.4509 15.6128 18.674C15.1501 18.9407 14.656 19.1411 14.1427 19.2875C13.7401 19.4025 13.5205 19.6465 13.4734 20.0674C13.3976 20.7472 13.3 21.4252 13.2242 22.1049C13.2007 22.3132 13.1344 22.3977 12.9052 22.3907C12.3074 22.3724 11.7087 22.3681 11.1118 22.3933C10.8565 22.4038 10.8015 22.2992 10.778 22.0866C10.7022 21.4173 10.609 20.7498 10.534 20.0805C10.4861 19.6483 10.2613 19.3982 9.84208 19.2814C9.31834 19.135 8.81813 18.9197 8.34406 18.6513C7.98851 18.45 7.65997 18.4919 7.34538 18.7376C6.79811 19.1655 6.24561 19.5873 5.70357 20.0221C5.5528 20.1433 5.45782 20.1677 5.30793 20.0099C4.88179 19.5603 4.44519 19.1193 3.99552 18.6949C3.83256 18.5415 3.86829 18.4465 3.98593 18.2993C4.40685 17.7738 4.81207 17.2361 5.23298 16.7106C5.51794 16.3551 5.55368 16.0004 5.32274 15.5986C5.05172 15.1263 4.8539 14.6191 4.7014 14.0963C4.59944 13.7468 4.37722 13.5385 4.01557 13.4906C3.32625 13.4008 2.6378 13.3067 1.94761 13.2335C1.70099 13.2074 1.59816 13.1342 1.60949 12.8614C1.63389 12.2863 1.63302 11.7085 1.60949 11.1333C1.59903 10.8754 1.69838 10.8039 1.9267 10.7786C2.59597 10.7046 3.2635 10.6113 3.93278 10.5338C4.34584 10.4858 4.60031 10.2784 4.71621 9.86885C4.86087 9.35644 5.06131 8.86146 5.32797 8.39872C5.55803 7.99959 5.51708 7.64578 5.22688 7.28936C4.79464 6.75864 4.38593 6.20963 3.96153 5.67282C3.86916 5.55604 3.83256 5.47587 3.96153 5.35038C4.43822 4.88938 4.9027 4.41619 5.37241 3.94822C5.40988 3.91075 5.45433 3.88025 5.49965 3.8419C5.56849 3.89245 5.63036 3.93515 5.68962 3.98133C6.23951 4.40747 6.79201 4.82838 7.33579 5.26149C7.6652 5.5238 7.9981 5.55082 8.36149 5.34515C8.84515 5.07152 9.3593 4.86498 9.89176 4.70899C10.2682 4.59919 10.4765 4.36128 10.5236 3.97175C10.6046 3.30334 10.6979 2.63581 10.7702 1.96654C10.7972 1.71643 10.8591 1.59269 11.1588 1.61012C11.7445 1.64236 12.3327 1.63103 12.92 1.6136C13.1362 1.6075 13.1989 1.69203 13.2207 1.88201C13.2939 2.5295 13.3889 3.17524 13.4508 3.8236C13.4978 4.31771 13.7235 4.62098 14.215 4.74821C14.7205 4.8798 15.1971 5.09592 15.6529 5.353C16.0059 5.55169 16.3353 5.52206 16.6525 5.27282C17.1997 4.8432 17.7531 4.42229 18.296 3.9883C18.445 3.86892 18.54 3.83406 18.6934 3.99702C19.1187 4.44756 19.557 4.8859 20.0076 5.31117C20.1679 5.4628 20.1391 5.55953 20.0198 5.70855C19.5988 6.23403 19.1971 6.7752 18.7727 7.2972C18.4825 7.65363 18.4459 8.00656 18.6777 8.40656C18.94 8.85884 19.1405 9.34337 19.2782 9.84707C19.3941 10.2688 19.6494 10.4876 20.079 10.5373C20.7483 10.6139 21.4149 10.7089 22.0842 10.783C22.2986 10.8065 22.4006 10.8606 22.3901 11.1142C22.3666 11.7094 22.3709 12.3089 22.3892 12.9067Z" fill="#303030"/>
<path d="M12.0122 7.21125C9.29589 7.22519 7.20092 9.3463 7.20876 12.0748C7.21573 14.6613 9.38478 16.8068 11.9904 16.805C14.6475 16.8033 16.8165 14.636 16.8008 11.999C16.7834 9.33759 14.6431 7.19731 12.0122 7.21125ZM11.9826 15.199C10.2292 15.1911 8.79829 13.7428 8.807 11.9851C8.81572 10.2326 10.2649 8.7999 12.0209 8.80775C13.7595 8.81559 15.2017 10.2613 15.1965 11.9903C15.1895 13.7741 13.7551 15.2059 11.9826 15.199Z" fill="#303030"/>
</svg>
