<svg width="52" height="52" viewBox="0 0 52 52" fill="none" xmlns="http://www.w3.org/2000/svg">
<circle cx="25.8689" cy="25.8689" r="25.8689" transform="rotate(90 25.8689 25.8689)" fill="url(#paint0_linear_604_36)"/>
<path fill-rule="evenodd" clip-rule="evenodd" d="M20.7232 25.3795C20.7232 28.4012 18.2736 30.8509 15.2518 30.8509C12.2301 30.8509 9.78046 28.4012 9.78046 25.3795C9.78046 22.3578 12.2301 19.9081 15.2518 19.9081C18.2736 19.9081 20.7232 22.3578 20.7232 25.3795ZM23.6872 27.4754C23.8866 26.6701 24.5602 26.0232 25.3899 26.0232C26.2196 26.0232 26.8932 26.6701 27.0927 27.4754C28.0304 31.2622 31.4514 34.0693 35.528 34.0693C37.6019 34.0693 39.5061 33.3428 41.0001 32.1304V34.0695C41.0001 34.9583 41.7205 35.6787 42.6093 35.6787C43.498 35.6787 44.2185 34.9583 44.2185 34.0695V26.0234C44.2185 25.9566 44.2144 25.8908 44.2065 25.8262C44.214 25.6783 44.2178 25.5293 44.2178 25.3795C44.2178 20.5803 40.3273 16.6897 35.528 16.6897C32.6018 16.6897 30.0134 18.1361 28.4388 20.3529C27.717 21.3689 26.6362 22.1611 25.3899 22.1611C24.1437 22.1611 23.0628 21.3689 22.3411 20.3529C20.7664 18.1361 18.178 16.6897 15.2518 16.6897C10.4526 16.6897 6.56201 20.5803 6.56201 25.3795C6.56201 30.1787 10.4526 34.0693 15.2518 34.0693C19.3284 34.0693 22.7494 31.2622 23.6872 27.4754ZM40.9994 25.3795C40.9994 28.4012 38.5498 30.8509 35.528 30.8509C32.5063 30.8509 30.0567 28.4012 30.0567 25.3795C30.0567 22.3578 32.5063 19.9081 35.528 19.9081C38.5498 19.9081 40.9994 22.3578 40.9994 25.3795Z" fill="white"/>
<mask id="path-3-inside-1_604_36" fill="white">
<path d="M6.83074 23.2352C7.33244 21.2649 8.50909 19.533 10.1559 18.3407L12.1065 21.0349C11.09 21.7708 10.3637 22.8399 10.0541 24.056L6.83074 23.2352Z"/>
</mask>
<path d="M6.83074 23.2352C7.33244 21.2649 8.50909 19.533 10.1559 18.3407L12.1065 21.0349C11.09 21.7708 10.3637 22.8399 10.0541 24.056L6.83074 23.2352Z" stroke="#EE5A8F" stroke-width="20" mask="url(#path-3-inside-1_604_36)"/>
<defs>
<linearGradient id="paint0_linear_604_36" x1="25.8689" y1="-1.91978e-06" x2="26.2862" y2="63.4205" gradientUnits="userSpaceOnUse">
<stop stop-color="#EE5A8F"/>
<stop offset="1" stop-color="#FFB629"/>
</linearGradient>
</defs>
</svg>
