<svg width="31" height="31" viewBox="0 0 31 31" fill="none" xmlns="http://www.w3.org/2000/svg">
<path fill-rule="evenodd" clip-rule="evenodd" d="M6.73901 1.34783H24.2607C27.2383 1.34783 29.6521 3.7616 29.6521 6.73913V24.2609C29.6521 27.2384 27.2383 29.6522 24.2607 29.6522H6.73901C3.76147 29.6522 1.3477 27.2384 1.3477 24.2609V6.73913C1.3477 3.7616 3.76147 1.34783 6.73901 1.34783ZM24.2607 0C27.9827 0 30.9999 3.01721 30.9999 6.73913V24.2609C30.9999 27.9828 27.9827 31 24.2607 31H6.73901C3.01709 31 -0.00012207 27.9828 -0.00012207 24.2609V6.73913C-0.00012207 3.01721 3.01709 0 6.73901 0H24.2607Z" fill="#6A6F73"/>
<path fill-rule="evenodd" clip-rule="evenodd" d="M22.9998 15.7281C22.9998 15.2556 22.6167 14.8726 22.1443 14.8726H9.31178C8.8393 14.8726 8.45628 15.2556 8.45628 15.7281C8.45628 16.2005 8.8393 16.5836 9.31178 16.5836H22.1443C22.6167 16.5836 22.9998 16.2005 22.9998 15.7281Z" fill="#6A6F73" stroke="#6A6F73" stroke-linecap="round"/>
<path fill-rule="evenodd" clip-rule="evenodd" d="M15.7269 23C16.1994 23 16.5824 22.617 16.5824 22.1445L16.5824 9.31202C16.5824 8.83954 16.1994 8.45652 15.7269 8.45652C15.2544 8.45652 14.8714 8.83954 14.8714 9.31202L14.8714 22.1445C14.8714 22.617 15.2544 23 15.7269 23Z" fill="#6A6F73" stroke="#6A6F73" stroke-linecap="round"/>
</svg>
